<svg width="120" height="121" viewBox="0 0 120 121" fill="none" xmlns="http://www.w3.org/2000/svg">
<path d="M60 105.875C84.8528 105.875 105 85.5599 105 60.5C105 35.4401 84.8528 15.125 60 15.125C35.1472 15.125 15 35.4401 15 60.5C15 85.5599 35.1472 105.875 60 105.875Z" fill="#A90140"/>
<path d="M29.7 69.8018L22.2 72.1272C24.0859 78.3857 27.4677 84.0812 32.0482 88.713C36.6286 93.3448 42.2673 96.771 48.4687 98.6905L50.775 91.128C45.7899 89.6022 41.2568 86.8564 37.5796 83.1354C33.9024 79.4144 31.1954 74.8337 29.7 69.8018Z" fill="#B95F81"/>
<path d="M87.9939 32.2729C83.4116 27.6253 77.754 24.2012 71.5314 22.3093L69.2251 29.8718C74.2101 31.3976 78.7433 34.1434 82.4205 37.8644C86.0977 41.5855 88.8047 46.1661 90.3001 51.1981L97.8001 48.8726C95.9455 42.6057 92.5758 36.9017 87.9939 32.2729Z" fill="#B95F81"/>
<path d="M40.6126 66.4556L35.7563 67.9492C36.9647 71.9659 39.1368 75.6201 42.0803 78.5881C45.0238 81.5561 48.6478 83.7464 52.6313 84.9648L54.1126 80.0681C50.9267 79.1015 48.028 77.354 45.6755 74.9819C43.323 72.6098 41.5899 69.6869 40.6313 66.4745L40.6126 66.4556Z" fill="#B95F81"/>
<path d="M77.925 42.4256C74.9833 39.4632 71.3647 37.2753 67.3875 36.0542L65.9062 40.9509C69.0921 41.9175 71.9909 43.665 74.3434 46.0371C76.6959 48.4092 78.4289 51.3321 79.3875 54.5445L84.2437 53.0509C83.0328 49.0406 80.8629 45.3918 77.925 42.4256Z" fill="#B95F81"/>
<path d="M60 76.6649C68.8538 76.6649 76.0312 69.4276 76.0312 60.5C76.0312 51.5725 68.8538 44.3352 60 44.3352C51.1462 44.3352 43.9688 51.5725 43.9688 60.5C43.9688 69.4276 51.1462 76.6649 60 76.6649Z" fill="#B95F81"/>
<path d="M60 76.6649C68.8538 76.6649 76.0312 69.4276 76.0312 60.5C76.0312 51.5725 68.8538 44.3352 60 44.3352C51.1462 44.3352 43.9688 51.5725 43.9688 60.5C43.9688 69.4276 51.1462 76.6649 60 76.6649Z" fill="#DCDFE2"/>
<path d="M59.9999 66.569C63.324 66.569 66.0187 63.8518 66.0187 60.5001C66.0187 57.1483 63.324 54.4312 59.9999 54.4312C56.6759 54.4312 53.9812 57.1483 53.9812 60.5001C53.9812 63.8518 56.6759 66.569 59.9999 66.569Z" fill="white"/>
</svg>
