<svg width="135" height="135" viewBox="0 0 135 135" fill="none" xmlns="http://www.w3.org/2000/svg">
<path d="M90.5824 10.5517L5.70514 69.9706C2.8608 71.9627 0.924138 75.0029 0.321097 78.4226C-0.281944 81.8424 0.498015 85.3617 2.48944 88.2064L25.9848 121.77C27.9769 124.614 31.0171 126.551 34.4369 127.154C37.8566 127.757 41.3759 126.977 44.2206 124.986L129.098 65.5669C131.942 63.5758 133.88 60.5363 134.483 57.1169C135.087 53.6976 134.307 50.1785 132.316 47.3338L108.81 13.7701C106.819 10.9271 103.781 8.99098 100.362 8.38747C96.9444 7.78396 93.4266 8.56242 90.5824 10.5517Z" fill="#A90140"/>
<path d="M123.619 61.2712L40.2974 119.281C39.8547 119.589 39.3536 119.803 38.825 119.91C38.2964 120.017 37.7515 120.015 37.2238 119.903C36.6961 119.792 36.1969 119.573 35.7569 119.261C35.3168 118.95 34.9453 118.551 34.6652 118.09L31.733 113.4L12.3794 82.4149L20.9789 76.4101L27.0431 72.1657L29.7809 70.2514L34.2305 67.1464L35.8505 66.0124L42.4574 61.3927L44.018 60.3127L48.5297 57.1591L53.063 54.0001L55.7954 52.0939L59.1299 49.7476L66.6899 44.4664L73.5101 39.6901L76.2695 37.7596L78.8102 35.9911L80.5004 34.8058L85.7924 31.1068L87.1802 30.1456L89.9288 28.2232L92.4452 26.4601L101.158 20.3716L120.887 50.1526L124.667 55.855C125.233 56.716 125.441 57.7643 125.245 58.7763C125.05 59.7882 124.466 60.6835 123.619 61.2712Z" fill="#FFF1E8"/>
<path d="M44.0099 60.3044C48.6242 67.4 58.4657 80.1386 58.4657 80.1386L64.1546 90.9386L57.896 103.459L53.2628 97.6535L34.2197 67.1435" stroke="#5297B7" stroke-width="4.22" stroke-miterlimit="10"/>
<path d="M66.6872 44.4663L87.4988 76.7232L77.8247 88.1037L69.2873 73.8774L55.7954 52.0803" stroke="#5297B7" stroke-width="4.22" stroke-miterlimit="10"/>
<path d="M112.539 64.2033L89.929 28.2312" stroke="#F13D23" stroke-width="4.22" stroke-miterlimit="10"/>
<path d="M76.2722 37.7676L98.3123 71.6013L45.3869 111.437L30.0212 82.9818" stroke="#F13D23" stroke-width="4.22" stroke-miterlimit="10"/>
<path d="M40.77 94.6943L35.586 98.0234C35.5178 98.0675 35.4416 98.0976 35.3617 98.1121C35.2819 98.1265 35.1999 98.1251 35.1206 98.1078C35.0414 98.0904 34.9663 98.0576 34.8997 98.0112C34.8331 97.9647 34.7764 97.9056 34.7328 97.8371L20.979 76.4099L27.0432 72.1655L40.959 93.8411C41.0456 93.9797 41.0743 94.1468 41.0389 94.3064C41.0036 94.4659 40.907 94.6052 40.77 94.6943Z" fill="#242024"/>
<path d="M49.8771 89.0027L44.6931 92.3399C44.6247 92.384 44.5483 92.4142 44.4682 92.4287C44.3881 92.4432 44.306 92.4418 44.2265 92.4245C44.147 92.4072 44.0716 92.3743 44.0048 92.3278C43.938 92.2814 43.8811 92.2221 43.8372 92.1536L29.781 70.2512L34.2306 67.1462L35.8506 66.0122L50.0607 88.1522C50.1476 88.2898 50.1771 88.4559 50.1428 88.615C50.1084 88.774 50.013 88.9133 49.8771 89.0027Z" fill="#242024"/>
<path d="M62.397 79.8983L57.213 83.2274C57.1446 83.2715 57.0682 83.3017 56.9881 83.3162C56.908 83.3307 56.8259 83.3293 56.7464 83.312C56.6669 83.2947 56.5915 83.2618 56.5247 83.2154C56.4579 83.1689 56.401 83.1097 56.3571 83.0411L42.4602 61.3925L44.0208 60.3125L48.5325 57.1589L62.5725 79.0532C62.6579 79.1896 62.6873 79.3536 62.6546 79.511C62.6219 79.6685 62.5296 79.8073 62.397 79.8983Z" fill="#242024"/>
<path d="M72.6299 71.9308L67.4459 75.2599C67.3775 75.304 67.3011 75.3341 67.221 75.3486C67.1409 75.3632 67.0588 75.3617 66.9793 75.3444C66.8997 75.3271 66.8244 75.2943 66.7576 75.2478C66.6908 75.2013 66.6339 75.1421 66.59 75.0736L53.063 54.0001L55.7954 52.0939L59.1299 49.7476L72.8216 71.0776C72.9086 71.2163 72.9373 71.3838 72.9014 71.5436C72.8655 71.7034 72.7679 71.8426 72.6299 71.9308Z" fill="#242024"/>
<path d="M92.3401 58.2093L87.9526 61.0335C87.884 61.0775 87.8074 61.1075 87.7273 61.1218C87.6471 61.1361 87.5649 61.1344 87.4853 61.1168C87.4058 61.0993 87.3305 61.0662 87.2638 61.0194C87.1971 60.9727 87.1403 60.9132 87.0966 60.8445L73.5103 39.69L76.2697 37.7595L78.8104 35.991L92.5183 57.348C92.5639 57.416 92.5956 57.4924 92.6114 57.5728C92.6272 57.6531 92.6267 57.7359 92.6101 57.8161C92.5935 57.8963 92.5611 57.9724 92.5147 58.0399C92.4684 58.1074 92.409 58.165 92.3401 58.2093Z" fill="#242024"/>
<path d="M99.1602 53.0873L94.77 55.9115C94.7017 55.9555 94.6253 55.9854 94.5453 55.9997C94.4654 56.014 94.3834 56.0123 94.304 55.9947C94.2247 55.9771 94.1497 55.944 94.0832 55.8973C94.0168 55.8506 93.9602 55.7912 93.9168 55.7225L80.4978 34.8137L85.7898 31.1147L99.36 52.2341C99.4034 52.3031 99.4327 52.3801 99.4462 52.4605C99.4597 52.5409 99.457 52.6231 99.4384 52.7025C99.4199 52.7819 99.3857 52.8568 99.3379 52.9228C99.2902 52.9889 99.2297 53.0448 99.1602 53.0873Z" fill="#242024"/>
<path d="M106.332 48.06L102.233 50.7924C102.098 50.8818 101.933 50.9152 101.774 50.8855C101.615 50.8557 101.473 50.7652 101.38 50.6331L87.1804 30.1671L89.929 28.2447L92.4454 26.46L106.502 47.1717C106.55 47.2407 106.584 47.3188 106.602 47.4013C106.62 47.4838 106.621 47.569 106.605 47.6519C106.589 47.7348 106.557 47.8136 106.51 47.8837C106.463 47.9538 106.402 48.0138 106.332 48.06Z" fill="#242024"/>
<path d="M124.708 61.5411L39.3875 120.941C38.934 121.256 38.4208 121.476 37.8794 121.585C37.3381 121.695 36.78 121.692 36.2396 121.578C35.6992 121.464 35.1878 121.241 34.7369 120.922C34.286 120.603 33.9051 120.195 33.6176 119.723L30.6179 114.92L121.91 50.1633L125.782 56.0034C126.358 56.885 126.568 57.9563 126.367 58.9901C126.167 60.0239 125.571 60.9389 124.708 61.5411Z" fill="#A90140"/>
</svg>
