<svg width="20" height="20" viewBox="0 0 20 20" fill="none" xmlns="http://www.w3.org/2000/svg">
<path d="M10.0001 11.6667C9.30564 11.6667 8.71536 11.4237 8.22925 10.9376C7.74314 10.4515 7.50008 9.86119 7.50008 9.16675V4.16675C7.50008 3.4723 7.74314 2.88203 8.22925 2.39591C8.71536 1.9098 9.30564 1.66675 10.0001 1.66675C10.6945 1.66675 11.2848 1.9098 11.7709 2.39591C12.257 2.88203 12.5001 3.4723 12.5001 4.16675V9.16675C12.5001 9.86119 12.257 10.4515 11.7709 10.9376C11.2848 11.4237 10.6945 11.6667 10.0001 11.6667ZM9.16675 17.5001V14.9376C7.7223 14.7431 6.52786 14.0973 5.58341 13.0001C4.63897 11.9029 4.16675 10.6251 4.16675 9.16675H5.83341C5.83341 10.3195 6.23966 11.3022 7.05216 12.1147C7.86466 12.9272 8.8473 13.3334 10.0001 13.3334C11.1529 13.3334 12.1355 12.9272 12.948 12.1147C13.7605 11.3022 14.1667 10.3195 14.1667 9.16675H15.8334C15.8334 10.6251 15.3612 11.9029 14.4167 13.0001C13.4723 14.0973 12.2779 14.7431 10.8334 14.9376V17.5001H9.16675Z" fill="white"/>
</svg>
