<?xml version="1.0" encoding="UTF-8"?>
<svg version="1.1" xmlns="http://www.w3.org/2000/svg" width="238" height="238">
<path d="M0 0 C0.89847656 0.40089844 1.79695312 0.80179688 2.72265625 1.21484375 C15.17603222 7.07641691 25.30038038 15.4069696 35 25 C35.48355957 25.46889648 35.96711914 25.93779297 36.46533203 26.42089844 C56.12444062 45.66577365 67.77858639 73.56517111 69 101 C69.01636011 102.76034835 69.02145419 104.52083528 69.015625 106.28125 C69.01336914 107.16876953 69.01111328 108.05628906 69.00878906 108.97070312 C69.00443848 109.97520508 69.00443848 109.97520508 69 111 C67.88533356 111.01030746 66.77066711 111.02061493 65.6222229 111.03123474 C54.94885549 111.13038393 44.27552848 111.23320781 33.60222816 111.33933926 C28.11927377 111.3937495 22.636314 111.44700699 17.15332031 111.49731445 C3.70384008 111.62143092 -9.7449129 111.77416489 -23.19364929 111.9625473 C-25.89392163 111.99858431 -28.59420067 112.0293125 -31.29455566 112.05841064 C-35.26335937 112.1025746 -39.23136413 112.16602216 -43.19960403 112.24598885 C-44.60180097 112.27150998 -46.00412914 112.29081527 -47.40650558 112.30297661 C-61.09694087 112.43061345 -73.78696009 115.62293022 -84.1875 124.96484375 C-94.07873608 135.32441488 -98.5512882 147.74396477 -98.24609375 161.890625 C-97.25841522 174.36986482 -92.42476996 185.6433805 -83.19921875 194.21875 C-72.67568868 202.7422486 -60.54216606 206.92057658 -47 206 C-43.61199184 205.48474579 -43.61199184 205.48474579 -41 204 C-39.1623843 201.12373195 -38.99301732 199.3421515 -39.0625 195.9375 C-40.27359457 192.14273702 -41.68987349 191.1691701 -45 189 C-48.29494743 188.23944414 -48.29494743 188.23944414 -51.8125 188 C-60.88534824 186.90140877 -67.79583173 183.86836146 -74 177 C-79.3605016 169.03543044 -81.09925664 162.01325735 -79.609375 152.5078125 C-77.74729182 144.84462401 -73.47031929 138.87945833 -66.8046875 134.5859375 C-58.50480936 130.32880443 -50.45477381 130.64206412 -41.375 130.4375 C-40.49492279 130.41632111 -39.61484558 130.39514221 -38.70809937 130.37332153 C-3.8186304 129.56393396 31.10381491 129.91570554 66 130 C65.85457678 131.42609185 65.70540684 132.85180191 65.5546875 134.27734375 C65.47202637 135.07132568 65.38936523 135.86530762 65.30419922 136.68334961 C61.94071518 162.29819718 41.68552307 187.61983892 22 203 C-4.99144509 222.2936882 -37.9259645 230.40062693 -70.91430664 225.17993164 C-102.24249396 219.11576162 -129.52164431 201.40203455 -147.859375 175.359375 C-160.14525573 156.767467 -168.37519057 135.45906384 -168.07421875 112.9921875 C-168.06618225 111.8309436 -168.06618225 111.8309436 -168.0579834 110.64624023 C-168.04417628 108.76411156 -168.02288642 106.88204017 -168 105 C-167.07207657 104.99503478 -167.07207657 104.99503478 -166.12540722 104.98996925 C-151.03334249 104.90854644 -135.94138405 104.81639187 -120.84945965 104.71247292 C-113.55094662 104.66247279 -106.25244412 104.61602909 -98.95385742 104.578125 C-92.58817667 104.54505661 -86.22258076 104.50514491 -79.85699397 104.45720994 C-76.49031125 104.43209155 -73.12368375 104.41026815 -69.75693321 104.39665604 C-65.98716575 104.37968928 -62.21766583 104.35062888 -58.44799805 104.31884766 C-57.34675598 104.31668747 -56.24551392 104.31452728 -55.11090088 104.31230164 C-39.66916137 104.14681044 -25.53090897 100.85953145 -14 90 C-4.29410608 78.47357368 -0.79006379 65.88247473 -1.78857422 50.96923828 C-3.12770853 38.4964238 -9.31753462 28.46410082 -18.7734375 20.5078125 C-27.76552537 13.36390079 -38.29403536 9.42855864 -49.8515625 9.671875 C-53.55921078 10.23813401 -55.95409249 11.84248218 -59 14 C-60.42041821 16.84083641 -60.31452272 18.85477278 -60 22 C-56.36424468 26.48409823 -53.56544786 27.09369719 -48 27.75 C-37.88447645 29.30022908 -31.11283327 32.75832601 -24.62890625 40.76171875 C-19.35745767 48.00522003 -18.9616291 55.26603917 -20 64 C-22.868971 72.92568757 -28.97505454 79.33224649 -37 84 C-40.12585915 84.97496749 -42.9613539 85.12353278 -46.22650146 85.12025452 C-47.28376938 85.12162918 -48.34103729 85.12300385 -49.43034363 85.12442017 C-50.58480484 85.12082489 -51.73926605 85.11722961 -52.92871094 85.11352539 C-54.14849136 85.11367142 -55.36827179 85.11381744 -56.62501526 85.1139679 C-59.96560522 85.1133908 -63.3061333 85.10837708 -66.6467123 85.10139394 C-70.13941198 85.09514071 -73.63211249 85.09455504 -77.12481689 85.09336853 C-83.73685272 85.09026103 -90.348872 85.08205545 -96.96090055 85.07201904 C-104.48926374 85.06083988 -112.01762772 85.05534291 -119.54599714 85.05032361 C-135.03067434 85.03987237 -150.51533504 85.02228415 -166 85 C-165.694322 83.24974676 -165.38512523 81.50010784 -165.07446289 79.75073242 C-164.81675865 78.28913948 -164.81675865 78.28913948 -164.55384827 76.79801941 C-159.02090209 48.84579544 -138.07200839 23.83004061 -115.02832031 8.31835938 C-81.16931735 -13.68917746 -36.66695109 -16.85887427 0 0 Z " fill="#FCFCFC" transform="translate(169,11)"/>
</svg>
